<svg xmlns="http://www.w3.org/2000/svg" viewBox="0 0 32 32" width="32" height="32" aria-hidden="true">
  <!-- Même silhouette élément ; viewBox carré resserré (≈38,8 u) pour remplir le 32×32 au lieu du cadre 48×56. -->
  <svg x="0" y="0" width="32" height="32" viewBox="4.6 8.4 38.8 38.8" preserveAspectRatio="xMidYMid meet">
    <defs>
      <linearGradient id="liq" x1="24" y1="20" x2="24" y2="47" gradientUnits="userSpaceOnUse">
        <stop stop-color="#7a9c86"/>
        <stop offset="0.5" stop-color="#5d8068"/>
        <stop offset="1" stop-color="#4a6b58"/>
      </linearGradient>
      <clipPath id="elemLiq" clipPathUnits="userSpaceOnUse">
        <path
          transform="translate(24 33.65) scale(0.968) translate(-24 -33.65)"
          d="M 24 20.2 C 11.5 20.2 7.2 27.5 7.2 33.8 C 7.2 40.8 12.8 46.2 24 47.2 C 35.2 46.2 40.8 40.8 40.8 33.8 C 40.8 27.5 36.5 20.2 24 20.2 Z"
        />
      </clipPath>
    </defs>
    <g clip-path="url(#elemLiq)">
      <rect x="0" y="0" width="48" height="56" fill="url(#liq)"/>
      <path
        d="M 9 32 Q 24 28 39 32"
        fill="none"
        stroke="#fff"
        stroke-opacity="0.12"
        stroke-width="1.2"
        stroke-linecap="round"
      />
      <ellipse cx="24" cy="26" rx="10" ry="4.5" fill="#fff" fill-opacity="0.18"/>
    </g>
    <g fill="none">
      <path
        d="M 24 20.2 C 11.5 20.2 7.2 27.5 7.2 33.8 C 7.2 40.8 12.8 46.2 24 47.2 C 35.2 46.2 40.8 40.8 40.8 33.8 C 40.8 27.5 36.5 20.2 24 20.2 Z"
        fill="rgba(255,255,255,0.08)"
        stroke="#152019"
        stroke-opacity="0.45"
        stroke-width="1.05"
      />
      <rect
        x="19.4"
        y="9.8"
        width="9.2"
        height="8.2"
        rx="0.55"
        fill="rgba(255,255,255,0.1)"
        stroke="#152019"
        stroke-opacity="0.4"
        stroke-width="0.65"
      />
      <rect
        x="16"
        y="17.5"
        width="16"
        height="3.4"
        rx="0.45"
        fill="#a8adb8"
        stroke="#5c636e"
        stroke-width="0.4"
      />
      <rect x="17" y="18.2" width="4.5" height="1.1" rx="0.2" fill="#d8dce4" opacity="0.85"/>
      <rect
        x="17.8"
        y="8.4"
        width="12.4"
        height="3.9"
        rx="0.75"
        fill="#9a6b2d"
        stroke="#5c3d16"
        stroke-width="0.45"
      />
      <rect x="18.6" y="9.1" width="2.6" height="2.6" rx="0.2" fill="#b8894a" opacity="0.45"/>
    </g>
    <ellipse cx="17.5" cy="32" rx="3.2" ry="9" fill="#fff" opacity="0.14" pointer-events="none"/>
  </svg>
</svg>
